<?xml version="1.0" encoding="utf-8"?>
<!-- Generator: Adobe Illustrator 22.0.0, SVG Export Plug-In . SVG Version: 6.00 Build 0)  -->
<svg version="1.1" id="Layer_1" xmlns="http://www.w3.org/2000/svg" xmlns:xlink="http://www.w3.org/1999/xlink" x="0px" y="0px"
	 viewBox="0 0 18 18" style="enable-background:new 0 0 18 18;" xml:space="preserve">
<style type="text/css">
	.st0{display:none;}
	.st1{display:inline;opacity:0.5;}
	.st2{fill:#6FCBDC;}
	.st3{display:inline;}
	.st4{opacity:0.5;fill:none;stroke:#A8A7A8;stroke-width:0.05;stroke-miterlimit:10;enable-background:new    ;}
	.st5{fill:none;stroke:#A8A7A8;stroke-width:0.05;stroke-miterlimit:10;}
	.st6{display:inline;opacity:0.5;fill:none;stroke:#6FCBDC;stroke-width:0.2;stroke-miterlimit:10;enable-background:new    ;}
	.st7{enable-background:new    ;}
	.st8{fill:#4C6A8D;}
</style>
<g id="Grid" class="st0">
	<g class="st1">
		<path class="st2" d="M18.8-0.8L18.8-0.8v19.6H-0.8V-0.8H18.8 M19-1H-1v20h20V-0.7V-1L19-1z"/>
	</g>
	<g class="st3">
		<line class="st4" x1="-2" y1="-3" x2="-2" y2="21"/>
		<line class="st4" x1="-1" y1="-3" x2="-1" y2="21"/>
		<line class="st4" x1="0" y1="-3" x2="0" y2="21"/>
		<line class="st4" x1="1" y1="-3" x2="1" y2="21"/>
		<line class="st4" x1="2" y1="-3" x2="2" y2="21"/>
		<line class="st4" x1="3" y1="-3" x2="3" y2="21"/>
		<line class="st4" x1="4" y1="-3" x2="4" y2="21"/>
		<line class="st4" x1="5" y1="-3" x2="5" y2="21"/>
		<line class="st4" x1="6" y1="-3" x2="6" y2="21"/>
		<line class="st4" x1="7" y1="-3" x2="7" y2="21"/>
		<line class="st4" x1="8" y1="-3" x2="8" y2="21"/>
		<line class="st4" x1="9" y1="-3" x2="9" y2="21"/>
		<line class="st4" x1="10" y1="-3" x2="10" y2="21"/>
		<line class="st4" x1="11" y1="-3" x2="11" y2="21"/>
		<line class="st4" x1="12" y1="-3" x2="12" y2="21"/>
		<line class="st4" x1="13" y1="-3" x2="13" y2="21"/>
		<line class="st4" x1="14" y1="-3" x2="14" y2="21"/>
		<line class="st4" x1="15" y1="-3" x2="15" y2="21"/>
		<line class="st4" x1="16" y1="-3" x2="16" y2="21"/>
		<line class="st4" x1="17" y1="-3" x2="17" y2="21"/>
		<line class="st4" x1="18" y1="-3" x2="18" y2="21"/>
		<line class="st4" x1="19" y1="-3" x2="19" y2="21"/>
		<line class="st4" x1="20" y1="-3" x2="20" y2="21"/>
		<line class="st4" x1="21" y1="-2" x2="-3" y2="-2"/>
		<line class="st4" x1="21" y1="-1" x2="-3" y2="-1"/>
		<line class="st4" x1="21" y1="0" x2="-3" y2="0"/>
		<line class="st4" x1="21" y1="1" x2="-3" y2="1"/>
		<line class="st4" x1="21" y1="2" x2="-3" y2="2"/>
		<line class="st4" x1="21" y1="3" x2="-3" y2="3"/>
		<line class="st4" x1="21" y1="4" x2="-3" y2="4"/>
		<line class="st4" x1="21" y1="5" x2="-3" y2="5"/>
		<line class="st4" x1="21" y1="6" x2="-3" y2="6"/>
		<line class="st4" x1="21" y1="7" x2="-3" y2="7"/>
		<line class="st4" x1="21" y1="8" x2="-3" y2="8"/>
		<line class="st4" x1="21" y1="9" x2="-3" y2="9"/>
		<line class="st4" x1="21" y1="10" x2="-3" y2="10"/>
		<line class="st4" x1="21" y1="11" x2="-3" y2="11"/>
		<line class="st4" x1="21" y1="12" x2="-3" y2="12"/>
		<line class="st4" x1="21" y1="13" x2="-3" y2="13"/>
		<line class="st4" x1="21" y1="14" x2="-3" y2="14"/>
		<line class="st4" x1="21" y1="15" x2="-3" y2="15"/>
		<line class="st4" x1="21" y1="16" x2="-3" y2="16"/>
		<line class="st4" x1="21" y1="17" x2="-3" y2="17"/>
		<line class="st4" x1="21" y1="18" x2="-3" y2="18"/>
		<line class="st4" x1="21" y1="19" x2="-3" y2="19"/>
		<line class="st4" x1="21" y1="20" x2="-3" y2="20"/>
		<rect x="-3" y="-3" class="st5" width="24" height="24"/>
	</g>
	<line class="st6" x1="-3" y1="-3" x2="21" y2="21"/>
	<line class="st6" x1="21" y1="-3" x2="-3" y2="21"/>
	<line class="st6" x1="-3" y1="9" x2="21" y2="9"/>
	<line class="st6" x1="-3" y1="3" x2="21" y2="3"/>
	<line class="st6" x1="-3" y1="14" x2="21" y2="14"/>
	<circle class="st6" cx="9" cy="9" r="10"/>
	<line class="st6" x1="15" y1="-3" x2="15" y2="21"/>
	<line class="st6" x1="3" y1="-3" x2="3" y2="21"/>
	<line class="st6" x1="9" y1="-3" x2="9" y2="21"/>
</g>
<g id="Delay">
</g>
<g id="App_integration">
</g>
<g id="Active_directory">
</g>
<g id="Record">
</g>
<g id="Clipboard">
</g>
<g id="Comment">
</g>
<g id="Database">
</g>
<g id="Wait">
</g>
<g id="Web_service_-_soap">
</g>
<g id="Web_service_-_rest">
</g>
<g id="Service">
</g>
<g id="Keyboard">
</g>
<g id="SNMP">
</g>
<g id="OCR">
</g>
<g id="Launch_site">
</g>
<g id="xml">
</g>
<g id="OCR_1_">
</g>
<g>
	<g class="st7">
		<path class="st8" d="M2.007,6.043h2.111c0.988,0,1.656,0.726,1.656,1.748c0,1.024-0.668,1.763-1.656,1.763H3.251v1.571H2.007
			V6.043z M3.861,8.488c0.433,0,0.646-0.291,0.646-0.697c0-0.404-0.213-0.682-0.625-0.682H3.251v1.378L3.861,8.488L3.861,8.488z"/>
		<path class="st8" d="M6.873,6.043h1.244v1.962h0.511l1.051-1.962h1.337l-1.373,2.43v0.014l1.451,2.637H9.702L8.628,9.063H8.117
			v2.061H6.873V6.043z"/>
		<path class="st8" d="M13.759,5.958c1.3,0,1.954,0.675,1.954,0.675l-0.598,0.932c0,0-0.519-0.469-1.236-0.469
			c-1.066,0-1.501,0.682-1.501,1.435c0,0.967,0.668,1.543,1.458,1.543c0.597,0,1.03-0.369,1.03-0.369V9.313H14.15V8.254h1.819v2.871
			h-1.037v-0.142c0-0.107,0.007-0.214,0.007-0.214h-0.014c0,0-0.49,0.441-1.335,0.441c-1.301,0-2.495-0.973-2.495-2.637
			C11.094,7.096,12.21,5.958,13.759,5.958z"/>
	</g>
	<path class="st8" d="M16.2,1H1.8C1.3,1,1,1.3,1,1.8V4h1V2l14.003,0.003v1.998H17V1.8C17,1.3,16.7,1,16.2,1z"/>
	<path class="st8" d="M16.002,14.004v2H1.994v-2H1V16.2C1,16.7,1.3,17,1.8,17h14.4c0.5,0,0.8-0.4,0.8-0.8v-2.196
		C17,14.004,16.002,14.004,16.002,14.004z"/>
</g>
<g id="window">
</g>
<g id="OPERATIONS">
</g>
<g id="VARIABLES">
</g>
<g id="Javascript">
</g>
<g id="JAva">
</g>
<g id="VBS">
</g>
<g id="Python">
</g>
<g id="Terminal">
</g>
<g id="Sound">
</g>
<g id="Screen_cap">
</g>
<g id="Print">
</g>
<g id="Prompt">
</g>
<g id="Read">
</g>
<g id="SAP_1_">
</g>
<g id="PGP">
</g>
<g id="System">
</g>
<g id="PDF">
</g>
<g id="command">
</g>
<g id="Message_box">
</g>
<g id="FTP">
</g>
<g id="Folder">
</g>
<g id="File">
</g>
<g id="Excel">
</g>
<g id="device">
</g>
<g id="email">
</g>
</svg>
